<svg xmlns="http://www.w3.org/2000/svg" width="114.004" height="132" viewBox="0 0 114.004 132"><defs><style>.a{fill:#312f2b;}</style></defs><g transform="translate(-72.496 -60.4)"><circle class="a" cx="26" cy="26" r="26" transform="translate(72.5 78.4)"/><path class="a" d="M160.5,140.4a26,26,0,1,0,26,26,26,26,0,0,0-26-26Zm0,46a20,20,0,1,1,20-20,20,20,0,0,1-20,20Z"/><path class="a" d="M180.5,60.4V87.8a26,26,0,1,0,0,33.2v9.4h6v-70Zm-20,64a20,20,0,1,1,20-20,20,20,0,0,1-20,20Z"/><path class="a" d="M98.5,186.4a20,20,0,0,1-20-20h46a26,26,0,1,0-2.6,11.3l-5.3-2.9a20,20,0,0,1-18.1,11.6Zm0-40a20,20,0,0,1,19.4,15H79.1a20,20,0,0,1,19.4-15Z"/></g></svg>