<svg xmlns="http://www.w3.org/2000/svg" width="258" height="264.79" viewBox="0 0 258 264.79"><defs><style>.a{fill:#312f2b;}</style></defs><g transform="translate(0 0)"><g transform="translate(0 0.054)"><path class="a" d="M48,43.6,38.7,32.7,41,30.8a15.2,15.2,0,0,1,3.9-2.6A6.3,6.3,0,0,1,49,28a7.7,7.7,0,0,1,3.7,2.5A7.6,7.6,0,0,1,54.4,34a6,6,0,0,1-.3,3.4,9.1,9.1,0,0,1-2.7,3.3Zm.2-1.9,1.3-1.1a15.5,15.5,0,0,0,2.9-3,4.8,4.8,0,0,0,.7-3.1,5.8,5.8,0,0,0-1.5-3.2,6.1,6.1,0,0,0-3.1-2.1,5.1,5.1,0,0,0-3.4.3,16.9,16.9,0,0,0-3.7,2.6l-.8.7Z"/><path class="a" d="M72.5,22h1.3a6.3,6.3,0,0,1-.3,2.2,5.2,5.2,0,0,1-.9,1.7,5.8,5.8,0,0,1-1.7,1.3,5.1,5.1,0,0,1-4.4.5,5.741,5.741,0,0,1-3.9-6.3,5.1,5.1,0,0,1,2.7-3.8,5.2,5.2,0,0,1,4.8-.3A5.8,5.8,0,0,1,73,19.8l-8.3,4.7a4.3,4.3,0,0,0,2.5,2.1,3.8,3.8,0,0,0,3-.4,4.5,4.5,0,0,0,1.2-1,4.2,4.2,0,0,0,.8-1.3A6.4,6.4,0,0,0,72.5,22Zm-1.4-2.5a4.5,4.5,0,0,0-1.6-1.1,3.8,3.8,0,0,0-1.7-.2,4.2,4.2,0,0,0-1.8.5,3.9,3.9,0,0,0-1.8,2.2,4.5,4.5,0,0,0,0,2.5Z"/><path class="a" d="M87.7,9l-.5,1.2a3.2,3.2,0,0,0-2.4-.3,1.6,1.6,0,0,0-.9.8,1.4,1.4,0,0,0-.1,1.1,1.5,1.5,0,0,0,.7.8,5.5,5.5,0,0,0,1.9.5,6.1,6.1,0,0,1,2.5.7A2.8,2.8,0,0,1,90,15.2a3,3,0,0,1-.1,2.4,3.1,3.1,0,0,1-1.8,1.6,4,4,0,0,1-1.8.2,3.8,3.8,0,0,1-1.7-.6l.5-1.2a3,3,0,0,0,2.5.3,2,2,0,0,0,1.1-1,1.6,1.6,0,0,0-.6-2.2,6.1,6.1,0,0,0-2-.5,5.5,5.5,0,0,1-2.3-.7,2.8,2.8,0,0,1-1.1-1.4,2.7,2.7,0,0,1,.1-2.2,2.9,2.9,0,0,1,1.7-1.5,4.3,4.3,0,0,1,3.2.6Z"/><path class="a" d="M99.2,0a1.083,1.083,0,0,1,1.4.8,1.1,1.1,0,0,1-.1.8A1.145,1.145,0,0,1,99,2a1.1,1.1,0,0,1-.5-.7,1.1,1.1,0,0,1,.1-.9,1.1,1.1,0,0,1,.6-.4Zm.3,4.4,1.3-.3,2.4,10.4-1.3.3Z"/><path class="a" d="M123.1,1.1h1.4l.7,8.4a10,10,0,0,1-.1,3.3,4.3,4.3,0,0,1-1.7,2.4,6.1,6.1,0,0,1-3.1,1,7.3,7.3,0,0,1-2.5-.2,4.9,4.9,0,0,1-1.8-.9,6.2,6.2,0,0,1-1.4-1.8h1.5a3.9,3.9,0,0,0,1.7,1.4,5,5,0,0,0,2.4.3,4.9,4.9,0,0,0,2.3-.7,3.2,3.2,0,0,0,1.3-1.4,5.8,5.8,0,0,0,.2-2.6V9.6a5.2,5.2,0,0,1-1.8,1.6,5.6,5.6,0,0,1-5.1.2A5.2,5.2,0,0,1,115,9.6a5.4,5.4,0,0,1-.9-2.6,5.5,5.5,0,0,1,2.4-5,5.4,5.4,0,0,1,2.7-1,5.1,5.1,0,0,1,2.3.3,6.1,6.1,0,0,1,2.1,1.5Zm-3.9,1.4a4.3,4.3,0,0,0-2.1.7,4.1,4.1,0,0,0-1.4,1.7,4.2,4.2,0,0,0-.4,2.2,3.9,3.9,0,0,0,1.4,2.8,4.6,4.6,0,0,0,6.1-.5,4,4,0,0,0,.9-3.1,4.3,4.3,0,0,0-.7-2.1,3.8,3.8,0,0,0-1.6-1.4,4.2,4.2,0,0,0-2.3-.4Z"/><path class="a" d="M138,1.2h1.4l-.2,1.9a5.7,5.7,0,0,1,2-1.4,4.5,4.5,0,0,1,2.2-.3,3.8,3.8,0,0,1,2,.8A3.6,3.6,0,0,1,146.6,4a8.6,8.6,0,0,1,.1,3.2l-.5,5.4h-1.4l.5-5a12.5,12.5,0,0,0,.1-2.5,2.7,2.7,0,0,0-.7-1.7,2.8,2.8,0,0,0-1.7-.7,3.4,3.4,0,0,0-2.3.6,3.8,3.8,0,0,0-1.5,1.9,14.1,14.1,0,0,0-.5,2.9l-.4,3.9h-1.4Z"/><path class="a" d="M165.3,7.1l-1.1.7a3.2,3.2,0,0,0-1.8-1.6,1.6,1.6,0,0,0-1.2.1,1.4,1.4,0,0,0-.7.9,1.5,1.5,0,0,0,.1,1.1,5.5,5.5,0,0,0,1.3,1.5,6.1,6.1,0,0,1,1.6,2,2.8,2.8,0,0,1,.1,1.8,3,3,0,0,1-1.5,1.9,3.1,3.1,0,0,1-2.5.3A4,4,0,0,1,158,15a3.8,3.8,0,0,1-1.1-1.4l1.1-.7a3,3,0,0,0,1.8,1.7,2,2,0,0,0,1.5-.2,1.67,1.67,0,0,0,.8-2.2,6.1,6.1,0,0,0-1.4-1.5,5.5,5.5,0,0,1-1.5-1.9,2.8,2.8,0,0,1-.1-1.7,2.7,2.7,0,0,1,1.3-1.7,2.9,2.9,0,0,1,2.2-.2,4.3,4.3,0,0,1,2.7,1.9Z"/><path class="a" d="M186.9,26.2l7.6-12.6,1.2.7-3.1,5.1a5.8,5.8,0,0,1,2.5-.3,5.4,5.4,0,0,1,4.7,4.2,5.5,5.5,0,0,1-.7,4.2,5.4,5.4,0,0,1-3.4,2.5,5.2,5.2,0,0,1-4.2-.6,5,5,0,0,1-1.7-1.7,5.5,5.5,0,0,1-.7-2.4l-1,1.7Zm5.2,1.9a4.1,4.1,0,0,0,4.2.1,4.3,4.3,0,0,0,2.2-3.7,4.2,4.2,0,0,0-.5-2.2,4,4,0,0,0-1.5-1.6,4.3,4.3,0,0,0-2.1-.6,4,4,0,0,0-2.1.5,4.4,4.4,0,0,0-1.6,1.6,4.2,4.2,0,0,0-.6,3.3,4,4,0,0,0,2,2.6Z"/><path class="a" d="M211.5,30l1.1,1-2.7,8.6,8.1-3.8,1.1,1-14.3,6.7-1.1-1,4.6-2.2Z"/></g><g transform="translate(0 0.054)"><path class="a" d="M21.8,182.4l3.8,7.3-1.2.6-3.1-6-4,2.1,3.1,6-1.2.6-3.1-6-5,2.6,3.1,6-1.2.6L9,189Z"/><path class="a" d="M28.3,201.4l.9,1.1-1.4,1.1a5.3,5.3,0,0,1,2.1.2,4.2,4.2,0,0,1,1.8,1.3,3.6,3.6,0,0,1,.7,1.3,3.2,3.2,0,0,1,.1,1.4,4.3,4.3,0,0,1-.7,1.5,5.1,5.1,0,0,1,2.5.1,4,4,0,0,1,1.9,1.3,3.4,3.4,0,0,1,.8,1.9,3.3,3.3,0,0,1-.4,1.9,8.3,8.3,0,0,1-2.1,2.2L30,220.3l-.9-1.1,4.5-3.6a7.6,7.6,0,0,0,1.7-1.7,2.1,2.1,0,0,0,.3-1.3,2.5,2.5,0,0,0-.6-1.3,3.1,3.1,0,0,0-1.6-1.1,3.4,3.4,0,0,0-2,0,9.9,9.9,0,0,0-2.8,1.7l-3.3,2.6-.9-1.1,4.3-3.4a9.4,9.4,0,0,0,1.9-1.8,2.2,2.2,0,0,0,.3-1.3,2.4,2.4,0,0,0-.6-1.4,3.1,3.1,0,0,0-1.6-1,3.4,3.4,0,0,0-2,0,8.3,8.3,0,0,0-2.6,1.5l-3.5,2.8L20,208Z"/><path class="a" d="M55.1,229.1l-6.8,8.2-1-.9,1.2-1.4a5.9,5.9,0,0,1-2.5,0,5.4,5.4,0,0,1-4.1-4.8,5.5,5.5,0,0,1,1.3-4.1,5.4,5.4,0,0,1,3.7-2,5.3,5.3,0,0,1,4,1.2,5,5,0,0,1,1.5,1.9,5.4,5.4,0,0,1,.4,2.5l1.2-1.5Zm-4.9-2.7a4.1,4.1,0,0,0-4.2-.7,4.3,4.3,0,0,0-2.7,3.3,4.2,4.2,0,0,0,.2,2.2,4,4,0,0,0,1.2,1.8,4.3,4.3,0,0,0,2,.9,4,4,0,0,0,2.2-.2,4.4,4.4,0,0,0,1.8-1.3,4.2,4.2,0,0,0,1-3.1,4,4,0,0,0-1.5-2.9Z"/><path class="a" d="M65.2,236.2l1.2.6-.9,1.6a5.3,5.3,0,0,1,2-.6,4.2,4.2,0,0,1,2.2.5,3.6,3.6,0,0,1,1.2,1,3.2,3.2,0,0,1,.6,1.2,4.3,4.3,0,0,1,0,1.6,5.1,5.1,0,0,1,2.4-.9,4,4,0,0,1,2.3.5,3.4,3.4,0,0,1,1.5,1.4,3.3,3.3,0,0,1,.4,2,8.3,8.3,0,0,1-1,2.8L74.3,253l-1.2-.7,2.7-5.1a7.6,7.6,0,0,0,.9-2.2,2.1,2.1,0,0,0-.3-1.3,2.5,2.5,0,0,0-1.1-1,3.1,3.1,0,0,0-1.9-.3,3.4,3.4,0,0,0-1.8.8,9.9,9.9,0,0,0-1.9,2.7l-1.9,3.7-1.2-.6,2.5-4.8a9.3,9.3,0,0,0,1-2.4,2.2,2.2,0,0,0-.2-1.4,2.4,2.4,0,0,0-1.1-1,3,3,0,0,0-1.8-.3,3.4,3.4,0,0,0-1.8.8,8.3,8.3,0,0,0-1.7,2.4l-2.1,4-1.2-.6Z"/><path class="a" d="M90.6,247.8l1.3.4L90.5,253a10.6,10.6,0,0,0-.5,2.5,2.8,2.8,0,0,0,.6,1.8,3.4,3.4,0,0,0,1.7,1.1,3.3,3.3,0,0,0,2,0,2.8,2.8,0,0,0,1.5-1.1,10.3,10.3,0,0,0,.9-2.4l1.4-4.8,1.3.4-1.5,5a8.3,8.3,0,0,1-1.4,3,3.9,3.9,0,0,1-2,1.2,5.65,5.65,0,0,1-5-1.4,3.9,3.9,0,0,1-1-2.1,8.6,8.6,0,0,1,.5-3.4Z"/><path class="a" d="M110.9,252.6l7.7.9-7.1,8.6,5.8.7V264l-8.1-1,7.1-8.6-5.4-.7Z"/><path class="a" d="M134.6,253.6a5.3,5.3,0,0,1,4.1,1.6,5.7,5.7,0,0,1,.2,7.7,5.6,5.6,0,0,1-8,.3,5.7,5.7,0,0,1-.4-7.7A5.3,5.3,0,0,1,134.6,253.6Zm.1,1.3a3.9,3.9,0,0,0-2.9,1.4,4.2,4.2,0,0,0-1.1,3.1,4.3,4.3,0,0,0,.6,2.1,4,4,0,0,0,1.6,1.5,4.3,4.3,0,0,0,4.2-.2,4,4,0,0,0,1.4-1.6,4.3,4.3,0,0,0,.5-2.2,4.2,4.2,0,0,0-1.4-3,4,4,0,0,0-2.9-1.1Z"/><path class="a" d="M171.8,242.1a7.4,7.4,0,0,1,5.9.1,7.6,7.6,0,0,1-.4,14,7.4,7.4,0,0,1-5.8-.1,7.2,7.2,0,0,1-3.9-4.2,7.7,7.7,0,0,1-.4-3.9,7.4,7.4,0,0,1,4.7-5.8Zm.6,1.3a5.9,5.9,0,0,0-2.5,1.9,6,6,0,0,0-1.3,2.9,6.2,6.2,0,0,0,.4,3.2,6,6,0,0,0,7.8,3.5,6.2,6.2,0,0,0,2.6-1.9,5.8,5.8,0,0,0,1.3-2.9,6.2,6.2,0,0,0-.4-3.2,6.1,6.1,0,0,0-1.8-2.6,6,6,0,0,0-2.9-1.3,6.1,6.1,0,0,0-3.2.4Z"/><path class="a" d="M188.8,234.1l1.2-.7,4.4,7.1,1.9-6.2,1.7-1.1-2.3,7.4,8.2,1.5-1.6,1-7.1-1.3,2.5,4.1-1.2.7Z"/><path class="a" d="M218.5,226l1.3-.3a6.3,6.3,0,0,1,.2,2.2,5.2,5.2,0,0,1-.6,1.9,5.8,5.8,0,0,1-1.3,1.7,5.1,5.1,0,0,1-4.2,1.4,5.8,5.8,0,0,1-3.6-1.9,5.7,5.7,0,0,1-1.5-3.5,5.1,5.1,0,0,1,1.8-4.3,5.2,5.2,0,0,1,4.6-1.3,5.8,5.8,0,0,1,3.3,2l-7.2,6.3a4.3,4.3,0,0,0,2.9,1.5,3.8,3.8,0,0,0,2.9-1,4.5,4.5,0,0,0,1-1.3,4.1,4.1,0,0,0,.5-1.4,6.4,6.4,0,0,0-.1-2Zm-1.9-2.1a4.5,4.5,0,0,0-1.8-.8,3.8,3.8,0,0,0-1.7.1,4.2,4.2,0,0,0-1.6.9,3.9,3.9,0,0,0-1.4,2.5,4.5,4.5,0,0,0,.5,2.5Z"/><path class="a" d="M222.7,211.3l.9-1.1,1.2,1a4.9,4.9,0,0,1-.2-1.9,2.6,2.6,0,0,1,.6-1.4,2.5,2.5,0,0,1,1.1-.7l.4,1.3-.6.4a2,2,0,0,0-.4,1.4,3.6,3.6,0,0,0,.7,1.9,16.7,16.7,0,0,0,2.7,2.5l2.8,2.3-.9,1.1Z"/><path class="a" d="M232.1,198.8l.8-1.2,1.3.8a4.9,4.9,0,0,1-.4-1.8,2.6,2.6,0,0,1,.4-1.5,2.5,2.5,0,0,1,1-.8l.6,1.2-.5.5a2,2,0,0,0-.2,1.4,3.5,3.5,0,0,0,.9,1.8,16.7,16.7,0,0,0,3,2.2l3,1.9-.8,1.2Z"/><path class="a" d="M236.4,182.5a1.1,1.1,0,0,1,1.5-.5,1.118,1.118,0,0,1-1,2,1.012,1.012,0,0,1-.5-1.5ZM240,185l.6-1.2,9.6,4.6-.6,1.2Z"/></g><circle class="a" cx="5" cy="5" r="5" transform="translate(0 104.454)"/><circle class="a" cx="5" cy="5" r="5" transform="translate(248 107.454)"/></g></svg>