<svg xmlns="http://www.w3.org/2000/svg" width="70" height="80" viewBox="0 0 70 80"><defs><style>.a{fill:#fffcf2;}</style></defs><g transform="translate(35 40.525)"><g transform="translate(-35 -40.525)"><ellipse class="a" cx="15.848" cy="15.848" rx="15.848" ry="15.848" transform="translate(0.002 10.895)"/><path class="a" d="M77.964,80A15.964,15.964,0,1,0,93.929,95.964,15.964,15.964,0,0,0,77.964,80Zm0,28.245a12.28,12.28,0,1,1,12.28-12.28A12.28,12.28,0,0,1,77.964,108.245Z" transform="translate(-23.929 -31.929)"/><path class="a" d="M90.24,0V16.824a15.964,15.964,0,1,0,0,20.385v5.772h3.684V0ZM77.96,39.3a12.28,12.28,0,1,1,12.28-12.28A12.28,12.28,0,0,1,77.96,39.3Z" transform="translate(-23.924)"/><path class="a" d="M15.963,108.231a12.28,12.28,0,0,1-12.28-12.28H31.927a15.964,15.964,0,1,0-1.6,6.938l-3.254-1.781a12.28,12.28,0,0,1-11.114,7.123Zm0-24.561a12.28,12.28,0,0,1,11.912,9.21H4.051a12.28,12.28,0,0,1,11.912-9.21Z" transform="translate(0.004 -31.915)"/></g></g></svg>