<svg xmlns="http://www.w3.org/2000/svg" width="752.317" height="788.624" viewBox="0 0 752.317 788.624"><defs><style>.a{fill:#f2ebdd;}</style></defs><g transform="translate(43.016 300.939) rotate(-30)"><g transform="translate(-129 -132.395)"><g transform="translate(206.249 171.988)"><circle class="a" cx="73.969" cy="73.969" r="73.969" transform="translate(0.011 51.209)"/><path class="a" d="M208.469,140.4a73.969,73.969,0,1,0,73.969,73.969A73.969,73.969,0,0,0,208.469,140.4Zm0,130.868a56.9,56.9,0,1,1,56.9-56.9A56.9,56.9,0,0,1,208.469,271.268Z" transform="translate(41.899 87.197)"/><path class="a" d="M265.388,60.4v77.952a73.969,73.969,0,1,0,0,94.453v26.743h17.07V60.4Zm-56.9,182.078a56.9,56.9,0,1,1,56.9-56.9,56.9,56.9,0,0,1-56.9,56.9Z" transform="translate(41.878 -60.4)"/><path class="a" d="M146.476,271.333a56.9,56.9,0,0,1-56.9-56.9H220.445a73.969,73.969,0,1,0-7.4,32.148l-15.078-8.25a56.9,56.9,0,0,1-51.494,33Zm0-113.8a56.9,56.9,0,0,1,55.192,42.674H91.284A56.9,56.9,0,0,1,146.476,157.534Z" transform="translate(-72.496 87.133)"/></g><g transform="translate(0 0)"><g transform="translate(110.1)"><path class="a" d="M65.158,72.844,38.7,41.834l6.543-5.405a43.244,43.244,0,0,1,11.1-7.4A17.923,17.923,0,0,1,68,28.463a21.906,21.906,0,0,1,10.526,7.112,21.622,21.622,0,0,1,4.836,9.957,17.07,17.07,0,0,1-.853,9.673,25.889,25.889,0,0,1-7.681,9.388Zm.569-5.405,3.7-3.129a44.1,44.1,0,0,0,8.25-8.535,13.656,13.656,0,0,0,1.991-8.819,16.5,16.5,0,0,0-4.267-9.1,17.354,17.354,0,0,0-8.819-5.974,14.509,14.509,0,0,0-9.673.854,48.079,48.079,0,0,0-10.526,7.4l-2.276,1.991Z" transform="translate(-38.7 51.349)"/><path class="a" d="M90.883,31.5h3.7a17.923,17.923,0,0,1-.854,6.259,14.8,14.8,0,0,1-2.56,4.836,16.5,16.5,0,0,1-4.836,3.7,14.509,14.509,0,0,1-12.518,1.422,16.332,16.332,0,0,1-11.1-17.923A14.509,14.509,0,0,1,70.4,18.981a14.794,14.794,0,0,1,13.656-.853,16.5,16.5,0,0,1,8.25,7.112L68.692,38.611A12.233,12.233,0,0,0,75.8,44.585a10.811,10.811,0,0,0,8.535-1.138A12.8,12.8,0,0,0,87.753,40.6a11.948,11.948,0,0,0,2.276-3.7A18.208,18.208,0,0,0,90.883,31.5ZM86.9,24.386a12.8,12.8,0,0,0-4.552-3.129,10.811,10.811,0,0,0-4.836-.569A11.949,11.949,0,0,0,72.39,22.11a11.1,11.1,0,0,0-5.121,6.259,12.8,12.8,0,0,0,0,7.112Z" transform="translate(5.277 31.243)"/><path class="a" d="M97.27,10.27l-1.422,3.414a9.1,9.1,0,0,0-6.828-.853,4.552,4.552,0,0,0-2.56,2.276,3.983,3.983,0,0,0-.284,3.129,4.267,4.267,0,0,0,1.992,2.276,15.646,15.646,0,0,0,5.405,1.422,17.354,17.354,0,0,1,7.112,1.991,7.965,7.965,0,0,1,3.129,3.983,8.535,8.535,0,0,1-.284,6.828,8.82,8.82,0,0,1-5.121,4.552,11.38,11.38,0,0,1-5.121.569,10.811,10.811,0,0,1-4.836-1.707l1.422-3.414a8.535,8.535,0,0,0,7.112.853,5.69,5.69,0,0,0,3.13-2.845,4.566,4.566,0,0,0-1.707-6.259,17.355,17.355,0,0,0-5.69-1.422,15.648,15.648,0,0,1-6.543-1.991,7.966,7.966,0,0,1-3.129-3.983,7.681,7.681,0,0,1,.284-6.259,8.25,8.25,0,0,1,4.836-4.267,12.233,12.233,0,0,1,9.1,1.707Z" transform="translate(42.133 15.487)"/><path class="a" d="M100.59.1a3.081,3.081,0,0,1,3.983,2.276,3.129,3.129,0,0,1-.284,2.276,3.259,3.259,0,0,1-4.267,1.138A3.129,3.129,0,0,1,98.6,3.8a3.129,3.129,0,0,1,.284-2.56A3.13,3.13,0,0,1,100.59.1Zm.854,12.518,3.7-.853,6.828,29.588-3.7.853Z" transform="translate(71.53 0.054)"/><path class="a" d="M139.738,1.331h3.983l1.992,23.9a28.451,28.451,0,0,1-.284,9.388,12.234,12.234,0,0,1-4.836,6.828,17.354,17.354,0,0,1-8.819,2.845,20.768,20.768,0,0,1-7.112-.569,13.939,13.939,0,0,1-5.121-2.56,17.639,17.639,0,0,1-3.983-5.121h4.267a11.1,11.1,0,0,0,4.836,3.983,14.225,14.225,0,0,0,6.828.853,13.941,13.941,0,0,0,6.543-1.991,9.1,9.1,0,0,0,3.7-3.983,16.5,16.5,0,0,0,.569-7.4V25.513a14.8,14.8,0,0,1-5.121,4.552,15.932,15.932,0,0,1-14.509.569,14.8,14.8,0,0,1-5.974-5.121,15.363,15.363,0,0,1-2.56-7.4,15.648,15.648,0,0,1,6.828-14.225,15.363,15.363,0,0,1,7.681-2.845,14.509,14.509,0,0,1,6.543.853,17.355,17.355,0,0,1,5.974,4.267Zm-11.1,3.983a12.233,12.233,0,0,0-5.974,1.991,11.665,11.665,0,0,0-3.983,4.836,11.949,11.949,0,0,0-1.138,6.259,11.1,11.1,0,0,0,3.983,7.966,13.087,13.087,0,0,0,17.354-1.422,11.38,11.38,0,0,0,2.561-8.819,12.232,12.232,0,0,0-1.992-5.974A10.811,10.811,0,0,0,134.9,6.168a11.949,11.949,0,0,0-6.543-1.138Z" transform="translate(100.377 1.951)"/><path class="a" d="M140.029,1.2h3.983l-.569,5.405a16.215,16.215,0,0,1,5.69-3.983,12.8,12.8,0,0,1,6.259-.853,10.811,10.811,0,0,1,5.69,2.276A10.242,10.242,0,0,1,164.5,9.166a24.468,24.468,0,0,1,.284,9.1l-1.422,15.363h-3.983L160.8,19.408a35.568,35.568,0,0,0,.284-7.112,7.681,7.681,0,0,0-1.992-4.836,7.966,7.966,0,0,0-4.836-1.991,9.673,9.673,0,0,0-6.543,1.707,10.811,10.811,0,0,0-4.267,5.405,40.125,40.125,0,0,0-1.423,8.25l-1.138,11.1H136.9Z" transform="translate(142.475 2.367)"/><path class="a" d="M180.8,10.845l-3.129,1.991a9.1,9.1,0,0,0-5.121-4.552,4.552,4.552,0,0,0-3.414.284,3.983,3.983,0,0,0-1.991,2.56,4.267,4.267,0,0,0,.284,3.129,15.649,15.649,0,0,0,3.7,4.267,17.355,17.355,0,0,1,4.552,5.69,7.966,7.966,0,0,1,.284,5.121,8.535,8.535,0,0,1-4.267,5.405,8.82,8.82,0,0,1-7.112.853,11.38,11.38,0,0,1-4.552-2.276,10.813,10.813,0,0,1-3.13-3.983l3.13-1.991a8.535,8.535,0,0,0,5.121,4.836,5.69,5.69,0,0,0,4.267-.569,4.752,4.752,0,0,0,2.276-6.259,17.356,17.356,0,0,0-3.983-4.267,15.648,15.648,0,0,1-4.267-5.405,7.965,7.965,0,0,1-.284-4.836,7.681,7.681,0,0,1,3.7-4.836,8.25,8.25,0,0,1,6.259-.569,12.233,12.233,0,0,1,7.681,5.405Z" transform="translate(179.374 9.507)"/><path class="a" d="M186.9,49.447,208.522,13.6l3.414,1.991L203.116,30.1a16.5,16.5,0,0,1,7.112-.853A15.363,15.363,0,0,1,223.6,41.2a15.647,15.647,0,0,1-1.991,11.949,15.363,15.363,0,0,1-9.673,7.112,14.794,14.794,0,0,1-11.949-1.707,14.224,14.224,0,0,1-4.836-4.836,15.648,15.648,0,0,1-1.992-6.828l-2.845,4.836Zm14.794,5.405a11.664,11.664,0,0,0,11.949.285A12.233,12.233,0,0,0,219.9,44.61a11.948,11.948,0,0,0-1.422-6.259,11.38,11.38,0,0,0-4.267-4.552,12.233,12.233,0,0,0-5.974-1.707,11.38,11.38,0,0,0-5.974,1.422,12.518,12.518,0,0,0-4.552,4.552A11.949,11.949,0,0,0,196,47.455a11.38,11.38,0,0,0,5.69,7.4Z" transform="translate(234.723 25.244)"/><path class="a" d="M225.891,30l3.129,2.845-7.681,24.467L244.383,46.5l3.129,2.845L206.829,68.407,203.7,65.562,216.787,59.3Z" transform="translate(265.719 55.501)"/></g><g transform="translate(25.605 517.582)"><path class="a" d="M45.416,182.4l10.811,20.768-3.414,1.707-8.819-17.07-11.38,5.974,8.819,17.07-3.414,1.707L29.2,195.487l-14.225,7.4,8.819,17.07-3.414,1.707L9,201.177Z" transform="translate(-9 -180.908)"/><path class="a" d="M43.613,201.4l2.56,3.129-3.983,3.13a15.076,15.076,0,0,1,5.974.569,11.946,11.946,0,0,1,5.121,3.7,10.242,10.242,0,0,1,1.991,3.7,9.1,9.1,0,0,1,.285,3.983,12.234,12.234,0,0,1-1.991,4.267,14.508,14.508,0,0,1,7.112.284,11.38,11.38,0,0,1,5.405,3.7,9.673,9.673,0,0,1,2.276,5.406,9.389,9.389,0,0,1-1.138,5.405,23.611,23.611,0,0,1-5.974,6.259L48.45,255.17l-2.56-3.129,12.8-10.242a21.622,21.622,0,0,0,4.836-4.836,5.975,5.975,0,0,0,.853-3.7,7.113,7.113,0,0,0-1.707-3.7,8.82,8.82,0,0,0-4.552-3.129,9.672,9.672,0,0,0-5.69,0,28.166,28.166,0,0,0-7.966,4.837l-9.388,7.4-2.56-3.129,12.233-9.673a26.743,26.743,0,0,0,5.405-5.121,6.259,6.259,0,0,0,.854-3.7,6.828,6.828,0,0,0-1.707-3.983,8.819,8.819,0,0,0-4.552-2.845,9.673,9.673,0,0,0-5.69,0,23.614,23.614,0,0,0-7.4,4.268l-9.957,7.966L20,220.177Z" transform="translate(11.295 -145.854)"/><path class="a" d="M79.5,238.388,60.153,261.716l-2.845-2.561,3.414-3.983a16.785,16.785,0,0,1-7.112,0,15.363,15.363,0,0,1-11.664-13.656,15.647,15.647,0,0,1,3.7-11.664,15.362,15.362,0,0,1,10.526-5.69,15.078,15.078,0,0,1,11.38,3.414,14.226,14.226,0,0,1,4.267,5.406,15.363,15.363,0,0,1,1.138,7.112l3.414-4.267Zm-13.94-7.681a11.664,11.664,0,0,0-11.949-1.991,12.233,12.233,0,0,0-7.681,9.388,11.949,11.949,0,0,0,.569,6.259,11.38,11.38,0,0,0,3.414,5.121,12.232,12.232,0,0,0,5.69,2.56,11.379,11.379,0,0,0,6.259-.569,12.517,12.517,0,0,0,5.121-3.7,11.949,11.949,0,0,0,2.845-8.819A11.38,11.38,0,0,0,65.559,230.706Z" transform="translate(51.654 -104.036)"/><path class="a" d="M74.425,236.2l3.414,1.707-2.56,4.552a15.076,15.076,0,0,1,5.69-1.707,11.95,11.95,0,0,1,6.259,1.422,10.243,10.243,0,0,1,3.414,2.845,9.105,9.105,0,0,1,1.707,3.414,12.235,12.235,0,0,1,0,4.552,14.51,14.51,0,0,1,6.828-2.561,11.382,11.382,0,0,1,6.543,1.423,9.672,9.672,0,0,1,4.267,3.983,9.388,9.388,0,0,1,1.138,5.69,23.613,23.613,0,0,1-2.845,7.966L100.314,284,96.9,282l7.681-14.509a21.62,21.62,0,0,0,2.56-6.259,5.975,5.975,0,0,0-.854-3.7,7.112,7.112,0,0,0-3.129-2.845,8.819,8.819,0,0,0-5.405-.854,9.673,9.673,0,0,0-5.121,2.276,28.165,28.165,0,0,0-5.405,7.681l-5.405,10.526-3.414-1.707L85.52,258.96a26.456,26.456,0,0,0,2.845-6.828,6.259,6.259,0,0,0-.569-3.983,6.829,6.829,0,0,0-3.129-2.845,8.535,8.535,0,0,0-5.121-.854,9.674,9.674,0,0,0-5.121,2.276,23.611,23.611,0,0,0-4.836,6.828l-5.974,11.38L60.2,263.227Z" transform="translate(85.462 -81.649)"/><path class="a" d="M94.5,247.8l3.7,1.138-3.983,13.656a30.158,30.158,0,0,0-1.423,7.112,7.966,7.966,0,0,0,1.707,5.121,9.674,9.674,0,0,0,4.836,3.13,9.387,9.387,0,0,0,5.69,0,7.966,7.966,0,0,0,4.267-3.13,29.3,29.3,0,0,0,2.56-6.828l3.983-13.656,3.7,1.138-4.267,14.225a23.615,23.615,0,0,1-3.983,8.535,11.1,11.1,0,0,1-5.69,3.414,16.073,16.073,0,0,1-14.225-3.983,11.1,11.1,0,0,1-2.845-5.974,24.467,24.467,0,0,1,1.423-9.673Z" transform="translate(137.65 -60.248)"/><path class="a" d="M114.036,252.6l21.906,2.561-20.2,24.467,16.5,1.992v3.414L109.2,282.188l20.2-24.467-15.363-1.991Z" transform="translate(175.865 -51.392)"/><path class="a" d="M144.576,253.615a15.078,15.078,0,0,1,11.664,4.552,16.216,16.216,0,0,1,.569,21.906,15.932,15.932,0,0,1-22.76.854,16.216,16.216,0,0,1-1.138-21.906A15.078,15.078,0,0,1,144.576,253.615Zm.284,3.7a11.1,11.1,0,0,0-8.25,3.983,11.949,11.949,0,0,0-3.129,8.819,12.232,12.232,0,0,0,1.707,5.974,11.378,11.378,0,0,0,4.552,4.267,12.233,12.233,0,0,0,11.949-.569,11.382,11.382,0,0,0,3.983-4.552,12.235,12.235,0,0,0,1.422-6.259,11.949,11.949,0,0,0-3.983-8.535A11.38,11.38,0,0,0,144.861,257.314Z" transform="translate(212.751 -49.562)"/><path class="a" d="M180.458,243.142a21.052,21.052,0,0,1,16.785.284,21.622,21.622,0,0,1-1.138,39.829,21.052,21.052,0,0,1-16.5-.285,20.484,20.484,0,0,1-11.1-11.949,21.907,21.907,0,0,1-1.138-11.1,21.053,21.053,0,0,1,13.371-16.5Zm1.707,3.7a16.784,16.784,0,0,0-7.112,5.405,17.07,17.07,0,0,0-3.7,8.25,17.637,17.637,0,0,0,1.138,9.1,17.07,17.07,0,0,0,22.191,9.957,17.639,17.639,0,0,0,7.4-5.405,16.5,16.5,0,0,0,3.7-8.25,17.639,17.639,0,0,0-1.138-9.1,17.356,17.356,0,0,0-5.121-7.4,17.07,17.07,0,0,0-8.25-3.7,17.353,17.353,0,0,0-9.1,1.138Z" transform="translate(282.702 -71.806)"/><path class="a" d="M188.8,235.761l3.414-1.992,12.518,20.2,5.405-17.639,4.836-3.13-6.543,21.053,23.329,4.267-4.552,2.845-20.2-3.7,7.112,11.664-3.414,1.992Z" transform="translate(322.724 -87.184)"/><path class="a" d="M236.425,233.76l3.7-.854a17.922,17.922,0,0,1,.569,6.259,14.792,14.792,0,0,1-1.707,5.405,16.5,16.5,0,0,1-3.7,4.837,14.509,14.509,0,0,1-11.949,3.983,16.5,16.5,0,0,1-10.242-5.406,16.216,16.216,0,0,1-4.267-9.957,14.51,14.51,0,0,1,5.121-12.233,14.794,14.794,0,0,1,13.087-3.7,16.5,16.5,0,0,1,9.388,5.69l-20.484,17.923a12.233,12.233,0,0,0,8.25,4.267,10.81,10.81,0,0,0,8.25-2.845,12.806,12.806,0,0,0,2.845-3.7,11.665,11.665,0,0,0,1.422-3.983A18.2,18.2,0,0,0,236.425,233.76Zm-5.405-5.974a12.8,12.8,0,0,0-5.121-2.276,10.811,10.811,0,0,0-4.837.284,11.95,11.95,0,0,0-4.552,2.56,11.1,11.1,0,0,0-3.983,7.112,12.8,12.8,0,0,0,1.422,7.113Z" transform="translate(359.594 -108.228)"/><path class="a" d="M222.7,218.864l2.56-3.129,3.414,2.845a13.94,13.94,0,0,1-.569-5.405,7.4,7.4,0,0,1,1.707-3.983,7.114,7.114,0,0,1,3.13-1.991l1.138,3.7-1.707,1.138a5.69,5.69,0,0,0-1.138,3.983,10.242,10.242,0,0,0,1.991,5.405,47.512,47.512,0,0,0,7.681,7.112l7.966,6.543-2.56,3.13Z" transform="translate(385.268 -135.153)"/><path class="a" d="M232.1,207.1l2.276-3.414,3.7,2.276a13.934,13.934,0,0,1-1.138-5.121,7.4,7.4,0,0,1,1.138-4.267,7.111,7.111,0,0,1,2.845-2.276l1.707,3.414-1.422,1.422a5.689,5.689,0,0,0-.569,3.983,9.958,9.958,0,0,0,2.56,5.121,47.515,47.515,0,0,0,8.535,6.259l8.535,5.406-2.276,3.414Z" transform="translate(402.611 -158.953)"/><path class="a" d="M236.684,183.652a3.13,3.13,0,0,1,4.267-1.422,3.181,3.181,0,0,1-2.845,5.69,2.88,2.88,0,0,1-1.423-4.268Zm10.242,7.113,1.707-3.414,27.312,13.087-1.707,3.414Z" transform="translate(410.261 -181.876)"/></g><circle class="a" cx="14.225" cy="14.225" r="14.225" transform="translate(0 297.166)"/><circle class="a" cx="14.225" cy="14.225" r="14.225" transform="translate(705.55 305.701)"/></g></g></g></svg>